<?xml version="1.0" standalone="no"?>
<!DOCTYPE svg PUBLIC "-//W3C//DTD SVG 20010904//EN"
 "http://www.w3.org/TR/2001/REC-SVG-20010904/DTD/svg10.dtd">
<svg version="1.0" xmlns="http://www.w3.org/2000/svg"
 width="870.000000pt" height="870.000000pt" viewBox="0 0 870.000000 870.000000"
 preserveAspectRatio="xMidYMid meet">
<metadata>
Created by potrace 1.14, written by Peter Selinger 2001-2017
</metadata>
<g transform="translate(0.000000,870.000000) scale(0.100000,-0.100000)"
fill="#000000" stroke="none">
<path d="M0 4350 l0 -4350 4350 0 4350 0 0 4350 0 4350 -4350 0 -4350 0 0
-4350z m4546 3879 c660 -65 1263 -441 1614 -1008 145 -235 242 -490 297 -781
25 -136 25 -554 0 -690 -59 -318 -162 -580 -324 -825 -224 -338 -500 -582
-858 -756 -263 -128 -500 -191 -790 -209 -396 -26 -524 -55 -744 -171 -129
-67 -216 -133 -331 -249 -192 -193 -324 -445 -371 -710 -20 -112 -18 -366 4
-470 69 -325 223 -587 463 -788 248 -208 534 -312 860 -312 149 0 257 18 415
70 211 69 385 177 552 344 92 91 231 287 282 399 187 408 145 892 -112 1282
-146 222 -454 470 -609 492 -25 3 -41 9 -37 13 4 4 53 20 108 36 226 63 502
194 682 326 29 21 58 38 65 38 38 0 293 -271 410 -435 177 -249 315 -597 363
-914 97 -650 -117 -1320 -575 -1795 -227 -236 -479 -403 -780 -519 -369 -142
-720 -171 -1130 -96 -574 106 -1082 442 -1402 928 -384 581 -461 1320 -205
1976 112 289 231 477 437 689 379 390 866 614 1410 647 337 20 481 50 666 138
237 113 414 268 577 507 262 384 298 860 96 1283 -125 262 -314 468 -556 605
-181 101 -339 151 -531 167 -390 31 -786 -105 -1059 -365 -132 -126 -218 -240
-293 -389 -100 -198 -140 -367 -140 -592 0 -282 74 -522 237 -768 63 -94 237
-268 338 -337 44 -30 127 -78 185 -107 l105 -51 -45 -11 c-265 -66 -505 -172
-727 -321 -87 -59 -103 -66 -108 -51 -3 9 -41 50 -85 90 -99 89 -233 249 -323
384 -343 516 -445 1170 -276 1772 170 603 559 1065 1124 1336 350 168 737 236
1121 198z"/>
</g>
</svg>
