<svg id="Layer_1" data-name="Layer 1" xmlns="http://www.w3.org/2000/svg" viewBox="0 0 1757.78 1019.42"><defs><style>.cls-1{fill:#2be2d0;}.cls-2{fill:#00847a;}.cls-3{fill:#1e1e1e;}.cls-4{fill:#00b2b2;}.cls-5,.cls-6{fill:#3f3f3f;}.cls-6,.cls-7{opacity:0;}</style></defs><path class="cls-1" d="M1941.05,734.49a211.65,211.65,0,0,1,83.39,17A217,217,0,0,1,2138.7,865.77a212.82,212.82,0,0,1,0,166.79,215.31,215.31,0,0,1-46.1,68.16c-5.1,5.1-10.5,10-16,14.53-1.11.91-2.16,1.75-3.2,2.58s-2.05,1.6-3.26,2.52a215.59,215.59,0,0,1-45.66,26.47,212.75,212.75,0,0,1-50.63,14.5c-1.43.23-2.85.43-4.22.61s-2.68.35-4.19.53c-4.84.55-9.78.94-14.66,1.16-1.26.06-2.6.1-4,.14s-2.6.06-4,.07a2.94,2.94,0,0,0-1.31.31c-1.54,0-3.09.08-4.62.16s-2.83.16-4.12.27a133.37,133.37,0,0,0-34.47,7.5,135.6,135.6,0,0,0-68.21,54.74,132.48,132.48,0,0,0-18.63,94.72,136.69,136.69,0,0,0,54,86,132.61,132.61,0,0,0,101.22,23.12,136.69,136.69,0,0,0,86-54,132.26,132.26,0,0,0,23.12-101.23,136.76,136.76,0,0,0-54-86,131.75,131.75,0,0,0-31.35-16.83,229.13,229.13,0,0,0,88.06-40.85,217.23,217.23,0,0,1,76.38,129.49,214.65,214.65,0,1,1-347-128.87l1.45-1.17,1.75-1.39c1.08-.85,2.18-1.69,3.28-2.52a214.65,214.65,0,0,1,95.58-40.78c1.37-.22,2.79-.43,4.23-.63s2.87-.38,4.21-.54c4.88-.58,9.84-1,14.72-1.23,1.37-.07,2.71-.12,4-.16s2.68-.07,4-.08a3.19,3.19,0,0,0,1.31-.31c1.36,0,2.72,0,4-.1s2.73-.13,4.13-.23a131.85,131.85,0,0,0,42.41-10.26,136.71,136.71,0,0,0,71.85-71.84,132.55,132.55,0,0,0,0-103.83A136.68,136.68,0,0,0,1993,825.4a132.55,132.55,0,0,0-103.83,0,136.71,136.71,0,0,0-71.84,71.85,131.65,131.65,0,0,0-10.59,51.91,133.94,133.94,0,0,0,19,68.58,135.4,135.4,0,0,0,50.39,49,131.85,131.85,0,0,0,18.19,8.38,229.16,229.16,0,0,0-88.27,40.8,215.2,215.2,0,0,1-79.59-166.72,211.65,211.65,0,0,1,17-83.39,216.47,216.47,0,0,1,114.26-114.26A211.7,211.7,0,0,1,1941.05,734.49Z" transform="translate(-405.22 -734.49)"/><path class="cls-2" d="M1919.05,734.49a211.65,211.65,0,0,1,83.39,17A217,217,0,0,1,2116.7,865.77a212.82,212.82,0,0,1,0,166.79,215.31,215.31,0,0,1-46.1,68.16c-5.1,5.1-10.5,10-16,14.53-1.11.91-2.16,1.75-3.2,2.58s-2.05,1.6-3.26,2.52a215.59,215.59,0,0,1-45.66,26.47,212.75,212.75,0,0,1-50.63,14.5c-1.43.23-2.85.43-4.22.61s-2.68.35-4.19.53c-4.84.55-9.78.94-14.66,1.16-1.26.06-2.6.1-4,.14s-2.6.06-4,.07a2.94,2.94,0,0,0-1.31.31c-1.54,0-3.09.08-4.62.16s-2.83.16-4.12.27a133.37,133.37,0,0,0-34.47,7.5,135.6,135.6,0,0,0-68.21,54.74,132.48,132.48,0,0,0-18.63,94.72,136.69,136.69,0,0,0,54,86,132.61,132.61,0,0,0,101.22,23.12,136.69,136.69,0,0,0,86-54,132.26,132.26,0,0,0,23.12-101.23,136.76,136.76,0,0,0-54-86,131.75,131.75,0,0,0-31.35-16.83,229.13,229.13,0,0,0,88.06-40.85,217.23,217.23,0,0,1,76.38,129.49,214.65,214.65,0,1,1-347-128.87l1.45-1.17,1.75-1.39c1.08-.85,2.18-1.69,3.28-2.52a214.65,214.65,0,0,1,95.58-40.78c1.37-.22,2.79-.43,4.23-.63s2.87-.38,4.21-.54c4.88-.58,9.84-1,14.72-1.23,1.37-.07,2.71-.12,4-.16s2.68-.07,4-.08a3.19,3.19,0,0,0,1.31-.31c1.36,0,2.72,0,4-.1s2.73-.13,4.13-.23a131.85,131.85,0,0,0,42.41-10.26,136.71,136.71,0,0,0,71.85-71.84,132.55,132.55,0,0,0,0-103.83A136.68,136.68,0,0,0,1971,825.4a132.55,132.55,0,0,0-103.83,0,136.71,136.71,0,0,0-71.84,71.85,131.65,131.65,0,0,0-10.59,51.91,133.94,133.94,0,0,0,19,68.58,135.4,135.4,0,0,0,50.39,49,131.85,131.85,0,0,0,18.19,8.38,229.16,229.16,0,0,0-88.27,40.8,215.2,215.2,0,0,1-79.59-166.72,211.65,211.65,0,0,1,17-83.39,216.47,216.47,0,0,1,114.26-114.26A211.7,211.7,0,0,1,1919.05,734.49Z" transform="translate(-405.22 -734.49)"/><path class="cls-3" d="M1893,734.6a211.7,211.7,0,0,1,83.4,17,217,217,0,0,1,114.26,114.26,212.82,212.82,0,0,1,0,166.79,215.31,215.31,0,0,1-46.1,68.16c-5.11,5.11-10.5,10-16,14.53-1.11.92-2.16,1.75-3.2,2.58s-2,1.6-3.26,2.52a215.59,215.59,0,0,1-45.66,26.47,212.42,212.42,0,0,1-50.63,14.5c-1.44.23-2.85.43-4.22.61s-2.69.35-4.19.53c-4.85.55-9.78.94-14.66,1.16-1.27.06-2.6.1-4,.14s-2.6.06-4,.07a3.16,3.16,0,0,0-1.32.31c-1.54,0-3.08.08-4.61.16s-2.83.16-4.13.27a133.15,133.15,0,0,0-34.47,7.51,135.54,135.54,0,0,0-68.2,54.73,132.44,132.44,0,0,0-18.64,94.72,136.76,136.76,0,0,0,54,86,132.58,132.58,0,0,0,101.22,23.12,136.69,136.69,0,0,0,86-54,132.26,132.26,0,0,0,23.12-101.23,136.81,136.81,0,0,0-54-86,131.49,131.49,0,0,0-31.36-16.84,229.07,229.07,0,0,0,88.07-40.85,217.23,217.23,0,0,1,76.38,129.49,214.67,214.67,0,1,1-347-128.87l1.44-1.17,1.76-1.39c1.07-.84,2.18-1.69,3.27-2.52a214.62,214.62,0,0,1,95.59-40.78c1.36-.22,2.78-.43,4.22-.63s2.88-.38,4.22-.54c4.88-.58,9.83-1,14.72-1.23,1.36-.07,2.7-.12,4-.16s2.69-.07,4-.08a3,3,0,0,0,1.31-.31c1.36,0,2.71,0,4-.1s2.73-.13,4.13-.23A131.85,131.85,0,0,0,1945,1073a136.73,136.73,0,0,0,71.84-71.84,132.43,132.43,0,0,0,0-103.83A136.71,136.71,0,0,0,1945,825.51a132.55,132.55,0,0,0-103.83,0,136.68,136.68,0,0,0-71.85,71.85,131.83,131.83,0,0,0-10.59,51.91,134,134,0,0,0,19,68.58,135.4,135.4,0,0,0,50.39,49,133.52,133.52,0,0,0,18.18,8.39A228.88,228.88,0,0,0,1758,1116a215.11,215.11,0,0,1-79.59-166.72,211.65,211.65,0,0,1,17-83.39,216.47,216.47,0,0,1,114.26-114.26A211.68,211.68,0,0,1,1893,734.6Z" transform="translate(-405.22 -734.49)"/><path class="cls-3" d="M405.22,1413.71,606.93,905.25H708.17l201.71,508.46h-99l-38-98.19H541.47l-37.3,98.19ZM568.11,1239.4H746.23l-88.3-236.72Z" transform="translate(-405.22 -734.49)"/><path class="cls-3" d="M977.62,1413.71V1056h83.72v59.37q14.46-33.48,39.59-48.71t56.32-15.22a144.72,144.72,0,0,1,18.65,1.14c5.83.76,10.28,1.9,13.32,3.42v83q-10.67-2.28-21.31-3.81a146.2,146.2,0,0,0-20.55-1.52q-35,0-58.61,27.78t-23.6,79.55v172.78Z" transform="translate(-405.22 -734.49)"/><path class="cls-3" d="M1402.35,1559.85q-45.66,0-85.25-13.7T1241,1503.53l28.93-63.94q35,25.88,67,36.16t60.9,10.27q53.26,0,84.1-27.78t30.83-81.83v-28.92q-17.52,22.83-47.57,36.92t-69.65,14.08q-45.68,0-84.87-20.55t-62.79-59.76q-23.61-39.18-23.6-94.76,0-56.33,23.6-95.15t62.79-59.37q39.19-20.55,84.87-20.55,42.62,0,73.07,16t47.2,41.1V1056h83v306q0,63.94-23.59,108.09t-67.37,67Q1464,1559.85,1402.35,1559.85Zm12.18-233.67q28.15,0,51-12.18a91.19,91.19,0,0,0,36.15-34.63q13.32-22.45,13.32-55.95t-13.32-56a91.33,91.33,0,0,0-36.15-34.63q-22.83-12.16-51-12.18t-51.38,12.18a93.24,93.24,0,0,0-36.91,34.63q-13.71,22.47-13.7,56t13.7,55.95a93.1,93.1,0,0,0,36.91,34.63Q1386.35,1326.18,1414.53,1326.18Z" transform="translate(-405.22 -734.49)"/><path class="cls-4" d="M407.44,1716l32.39-87.66h16.25L488.46,1716H472.57l-6.11-16.93H429.32l-6,16.93Zm26.15-30h28.6L448,1645.15Z" transform="translate(-405.22 -734.49)"/><path class="cls-4" d="M499.34,1716v-61.68h13.44v10.24a17.26,17.26,0,0,1,6.35-8.4,16.21,16.21,0,0,1,9-2.62,21.94,21.94,0,0,1,3,.19,7,7,0,0,1,2.14.59v14.31c-1.14-.26-2.29-.48-3.42-.66a22.61,22.61,0,0,0-3.3-.26,11.56,11.56,0,0,0-9.41,4.79q-3.79,4.8-3.79,13.71V1716Z" transform="translate(-405.22 -734.49)"/><path class="cls-4" d="M559.33,1716l-19.91-61.68h14.9l12.35,43.18,13.07-43.18h12.59l12.95,43.18,12.47-43.18h14.9l-20,61.68H598.93L586.1,1673.5l-13,42.51Z" transform="translate(-405.22 -734.49)"/><path class="cls-4" d="M666.5,1717.33a34,34,0,0,1-15.88-3.68,27.34,27.34,0,0,1-11.24-10.82q-4.15-7.15-4.16-17.66a35.74,35.74,0,0,1,3.85-17.06A27.74,27.74,0,0,1,649.64,1657a29.13,29.13,0,0,1,15-3.94,30.59,30.59,0,0,1,14.91,3.48,25,25,0,0,1,9.84,9.51,27.11,27.11,0,0,1,3.48,13.78,25.48,25.48,0,0,1-.55,5,20.52,20.52,0,0,1-1.41,4.59H649.27a18.38,18.38,0,0,0,3.06,8.47,15.4,15.4,0,0,0,6.35,5.25,22.38,22.38,0,0,0,9.29,1.77,25.58,25.58,0,0,0,9.72-1.77,38,38,0,0,0,8.37-4.79l4.4,10.76a35.06,35.06,0,0,1-10.88,6.17A39.52,39.52,0,0,1,666.5,1717.33Zm-17.23-38.72H678.6a3.63,3.63,0,0,0,.19-.52,3.88,3.88,0,0,0,.06-.79,12.64,12.64,0,0,0-1.59-6.43,10.65,10.65,0,0,0-4.59-4.26,16.85,16.85,0,0,0-7.63-1.51,15.51,15.51,0,0,0-7.15,1.64,14.91,14.91,0,0,0-5.44,4.72A20.32,20.32,0,0,0,649.27,1678.61Z" transform="translate(-405.22 -734.49)"/><path class="cls-4" d="M724.79,1717.33a27.28,27.28,0,0,1-10.93-2.1,16.6,16.6,0,0,1-7.52-6.24,18.26,18.26,0,0,1-2.69-10.17,17.26,17.26,0,0,1,2.69-10,17.62,17.62,0,0,1,7.58-6,39.26,39.26,0,0,1,10.87-3l19.43-2.62c-.49-4-2-7-4.58-8.79a15.42,15.42,0,0,0-9.23-2.76,23.72,23.72,0,0,0-8.37,1.64,45.19,45.19,0,0,0-9.59,5.32l-4.64-11.16a39.42,39.42,0,0,1,11.06-6.23A35,35,0,0,1,731,1653q13.46,0,20.41,6.37t7,19.09V1716H745v-8a19.58,19.58,0,0,1-8.25,7.08A28.82,28.82,0,0,1,724.79,1717.33Zm3.91-12.08a16.21,16.21,0,0,0,8.5-2.1,14,14,0,0,0,5.31-5.64,16.09,16.09,0,0,0,1.83-7.48v-2.23l-15.15,2.1q-5.75.66-8.61,2.56a6.26,6.26,0,0,0-2.87,5.58,6,6,0,0,0,2.87,5.38Q723.45,1705.25,728.7,1705.25Z" transform="translate(-405.22 -734.49)"/><path class="cls-4" d="M783.69,1716l-22.36-61.68h14.91l15.27,46.33,15.16-46.33h14.9L799.21,1716Z" transform="translate(-405.22 -734.49)"/><path class="cls-4" d="M855.43,1717.33a34,34,0,0,1-15.89-3.68,27.4,27.4,0,0,1-11.24-10.82q-4.15-7.15-4.16-17.66a35.86,35.86,0,0,1,3.85-17.06A27.74,27.74,0,0,1,838.56,1657a29.13,29.13,0,0,1,15-3.94,30.59,30.59,0,0,1,14.91,3.48,24.89,24.89,0,0,1,9.84,9.51,27.11,27.11,0,0,1,3.48,13.78,25.48,25.48,0,0,1-.55,5,20.55,20.55,0,0,1-1.4,4.59H838.2a18.26,18.26,0,0,0,3,8.47,15.37,15.37,0,0,0,6.36,5.25,22.33,22.33,0,0,0,9.28,1.77,25.54,25.54,0,0,0,9.72-1.77,38,38,0,0,0,8.37-4.79l4.4,10.76a35.06,35.06,0,0,1-10.88,6.17A39.5,39.5,0,0,1,855.43,1717.33Zm-17.23-38.72h29.32a2.73,2.73,0,0,0,.19-.52,3.88,3.88,0,0,0,.06-.79,12.64,12.64,0,0,0-1.59-6.43,10.68,10.68,0,0,0-4.58-4.26,16.9,16.9,0,0,0-7.64-1.51,15.51,15.51,0,0,0-7.15,1.64,14.91,14.91,0,0,0-5.44,4.72A20.49,20.49,0,0,0,838.2,1678.61Z" transform="translate(-405.22 -734.49)"/><path class="cls-4" d="M963.69,1717.33q-12.95,0-22.54-5.84a38.45,38.45,0,0,1-14.67-16,51.55,51.55,0,0,1-5.07-23.3,50.88,50.88,0,0,1,5.14-23.29,38.9,38.9,0,0,1,14.66-16q9.52-5.84,22.48-5.84a53.26,53.26,0,0,1,16.13,2.43,45.58,45.58,0,0,1,14.18,7.41L988.38,1649a44.85,44.85,0,0,0-11.92-6,41.42,41.42,0,0,0-12.77-2,26.7,26.7,0,0,0-14.48,3.87,25.44,25.44,0,0,0-9.53,11,37.86,37.86,0,0,0-3.36,16.4,37.43,37.43,0,0,0,3.36,16.34,26,26,0,0,0,9.53,11,26.39,26.39,0,0,0,14.48,3.94,27.27,27.27,0,0,0,11.67-2.37,23.59,23.59,0,0,0,8.62-6.82v-14.44H962.47v-12.86h36.17v32.29a37,37,0,0,1-14.23,13.38A43.43,43.43,0,0,1,963.69,1717.33Z" transform="translate(-405.22 -734.49)"/><path class="cls-4" d="M1029.31,1717.33a27.32,27.32,0,0,1-10.93-2.1,16.6,16.6,0,0,1-7.52-6.24,18.26,18.26,0,0,1-2.69-10.17,17.26,17.26,0,0,1,2.69-10,17.62,17.62,0,0,1,7.58-6,39.36,39.36,0,0,1,10.87-3l19.43-2.62c-.48-4-2-7-4.58-8.79a15.39,15.39,0,0,0-9.22-2.76,23.68,23.68,0,0,0-8.37,1.64,45,45,0,0,0-9.6,5.32l-4.64-11.16a39.55,39.55,0,0,1,11.06-6.23,35,35,0,0,1,12.16-2.17q13.44,0,20.4,6.37t7,19.09V1716h-13.44v-8a19.58,19.58,0,0,1-8.25,7.08A28.82,28.82,0,0,1,1029.31,1717.33Zm3.92-12.08a16.17,16.17,0,0,0,8.49-2.1,14,14,0,0,0,5.31-5.64,16,16,0,0,0,1.84-7.48v-2.23l-15.16,2.1q-5.74.66-8.61,2.56a6.26,6.26,0,0,0-2.87,5.58,6,6,0,0,0,2.87,5.38Q1028,1705.25,1033.23,1705.25Z" transform="translate(-405.22 -734.49)"/><path class="cls-4" d="M1099.58,1716.8q-9.9,0-14.36-4.66t-4.46-14.63V1666.8h-12.34v-12.47h12.34v-17.58h13.81v17.58h14.67v12.47h-14.67v29.14q0,4.2,2,6.29t6,2.1c1,0,2.13,0,3.48-.13a21.73,21.73,0,0,0,3.24-.39v11.81a30.38,30.38,0,0,1-4.46.85A41.86,41.86,0,0,1,1099.58,1716.8Z" transform="translate(-405.22 -734.49)"/><path class="cls-4" d="M1150.42,1717.33a34,34,0,0,1-15.89-3.68,27.46,27.46,0,0,1-11.24-10.82q-4.15-7.15-4.16-17.66a35.86,35.86,0,0,1,3.85-17.06,27.74,27.74,0,0,1,10.57-11.15,29.13,29.13,0,0,1,15-3.94,30.53,30.53,0,0,1,14.91,3.48,24.89,24.89,0,0,1,9.84,9.51,27.11,27.11,0,0,1,3.48,13.78,25.48,25.48,0,0,1-.55,5,20,20,0,0,1-1.4,4.59h-41.67a18.26,18.26,0,0,0,3,8.47,15.37,15.37,0,0,0,6.36,5.25,22.33,22.33,0,0,0,9.28,1.77,25.5,25.5,0,0,0,9.72-1.77,38,38,0,0,0,8.37-4.79l4.4,10.76a35.06,35.06,0,0,1-10.88,6.17A39.5,39.5,0,0,1,1150.42,1717.33Zm-17.23-38.72h29.32a2.73,2.73,0,0,0,.19-.52,3.88,3.88,0,0,0,.06-.79,12.64,12.64,0,0,0-1.59-6.43,10.68,10.68,0,0,0-4.58-4.26,16.9,16.9,0,0,0-7.64-1.51,15.51,15.51,0,0,0-7.15,1.64,14.91,14.91,0,0,0-5.44,4.72A20.49,20.49,0,0,0,1133.19,1678.61Z" transform="translate(-405.22 -734.49)"/><path class="cls-4" d="M1199.18,1716l-19.92-61.68h14.91l12.34,43.18,13.07-43.18h12.59l12.95,43.18,12.47-43.18h14.91l-20,61.68h-13.69l-12.83-42.51L1213,1716Z" transform="translate(-405.22 -734.49)"/><path class="cls-4" d="M1296.69,1717.33a27.28,27.28,0,0,1-10.93-2.1,16.6,16.6,0,0,1-7.52-6.24,18.26,18.26,0,0,1-2.69-10.17,17.26,17.26,0,0,1,2.69-10,17.62,17.62,0,0,1,7.58-6,39.26,39.26,0,0,1,10.87-3l19.43-2.62c-.49-4-2-7-4.58-8.79a15.42,15.42,0,0,0-9.23-2.76,23.72,23.72,0,0,0-8.37,1.64,45.19,45.19,0,0,0-9.59,5.32l-4.64-11.16a39.42,39.42,0,0,1,11.06-6.23,35,35,0,0,1,12.15-2.17q13.45,0,20.41,6.37t7,19.09V1716h-13.44v-8a19.58,19.58,0,0,1-8.25,7.08A28.82,28.82,0,0,1,1296.69,1717.33Zm3.91-12.08a16.21,16.21,0,0,0,8.5-2.1,14,14,0,0,0,5.31-5.64,16.1,16.1,0,0,0,1.84-7.48v-2.23l-15.16,2.1q-5.74.66-8.61,2.56a6.26,6.26,0,0,0-2.87,5.58,6,6,0,0,0,2.87,5.38Q1295.35,1705.25,1300.6,1705.25Z" transform="translate(-405.22 -734.49)"/><path class="cls-4" d="M1345.57,1740.69a31.75,31.75,0,0,1-7.82-1A24.3,24.3,0,0,1,1331,1737l3.91-11.42a28.61,28.61,0,0,0,4.77,1.91,17.18,17.18,0,0,0,4.89.72,11.21,11.21,0,0,0,8.67-3.81,26.88,26.88,0,0,0,3.55-5l-23.59-65.1h14.91l15.15,47.38,15.28-47.38h14.91L1371.11,1716a59.56,59.56,0,0,1-7.39,14.7,24.68,24.68,0,0,1-8.55,7.68A21.21,21.21,0,0,1,1345.57,1740.69Z" transform="translate(-405.22 -734.49)"/><path class="cls-4" d="M1422.8,1717.33a37.6,37.6,0,0,1-12.46-2.1,43.91,43.91,0,0,1-11.37-6l5.14-11.29a49.87,49.87,0,0,0,10.26,5.65,24.72,24.72,0,0,0,8.8,1.83c3.67,0,6.39-.54,8.19-1.64a5.62,5.62,0,0,0,2.69-5.18,5.32,5.32,0,0,0-1.78-4.27c-1.18-1-3.19-1.77-6-2.29l-8.79-1.71q-8.31-1.69-12.47-5.9a14.82,14.82,0,0,1-4.15-10.89,21.42,21.42,0,0,1,2.5-10.31,18.1,18.1,0,0,1,7.7-7.41q5.19-2.76,13.26-2.76a36.65,36.65,0,0,1,11.85,1.91,37.52,37.52,0,0,1,10.15,5.18l-4.89,10.89a48.66,48.66,0,0,0-8.25-4.33,22.33,22.33,0,0,0-8.37-1.71,14.13,14.13,0,0,0-7.27,1.58,5.37,5.37,0,0,0-2.63,5,4.39,4.39,0,0,0,1.71,3.6,13.1,13.1,0,0,0,5.5,2.17l8.8,1.71q8.43,1.7,12.83,5.9t4.4,11.94a19,19,0,0,1-6.36,14.7Q1435.4,1717.33,1422.8,1717.33Z" transform="translate(-405.22 -734.49)"/><path class="cls-4" d="M1523.49,1717.33a23.76,23.76,0,0,1-11.85-2.76,19.61,19.61,0,0,1-7.58-7.48V1716h-13.44v-87.66h14.05v34a18.86,18.86,0,0,1,7.46-6.82,24.23,24.23,0,0,1,11.36-2.5,25.81,25.81,0,0,1,14,3.87,27.38,27.38,0,0,1,9.83,11.09,42.12,42.12,0,0,1,0,34.39,27.32,27.32,0,0,1-9.83,11.09A25.9,25.9,0,0,1,1523.49,1717.33Zm-3.17-13a15.78,15.78,0,0,0,8.55-2.29,15.08,15.08,0,0,0,5.68-6.63,24,24,0,0,0,2-10.24,23,23,0,0,0-2.08-10.17,15.82,15.82,0,0,0-5.8-6.62,15.3,15.3,0,0,0-8.37-2.37,15.26,15.26,0,0,0-14.24,9,23.71,23.71,0,0,0-2,10.17,24.14,24.14,0,0,0,2,10.24,15,15,0,0,0,5.74,6.63A15.89,15.89,0,0,0,1520.32,1704.33Z" transform="translate(-405.22 -734.49)"/><path class="cls-4" d="M1565.53,1740.69a31.75,31.75,0,0,1-7.82-1A24.3,24.3,0,0,1,1551,1737l3.91-11.42a28.61,28.61,0,0,0,4.77,1.91,17.12,17.12,0,0,0,4.88.72,11.21,11.21,0,0,0,8.68-3.81,26.41,26.41,0,0,0,3.54-5l-23.58-65.1h14.91l15.15,47.38,15.28-47.38h14.9L1591.07,1716a59.91,59.91,0,0,1-7.39,14.7,24.62,24.62,0,0,1-8.56,7.68A21.13,21.13,0,0,1,1565.53,1740.69Z" transform="translate(-405.22 -734.49)"/><path id="g2Gb6jqSS" class="cls-5" d="M1755.71,1722.55a4.18,4.18,0,0,0-.19.92,16,16,0,0,1-1.46,6.28,16.22,16.22,0,0,1-4,5.75c-.76.69-1.58,1.3-2.38,1.93a15.05,15.05,0,0,1-7.09,3.08,19.37,19.37,0,0,1-10.48-1,19.63,19.63,0,0,1-6-3.82,18.23,18.23,0,0,1-3.6-5,14.13,14.13,0,0,1-1.72-5.24,59.16,59.16,0,0,1-.27-6.39c0-5.19,0-10.37,0-15.56a10.86,10.86,0,0,0-.13-1.34l-9.4,0-4.14-.12.33,12.62h.1v3.64a45.06,45.06,0,0,0,1.17,12.19,30.62,30.62,0,0,0,4.11,9.09,46.56,46.56,0,0,0,4.63,5.59,21.29,21.29,0,0,0,3.27,2.59,26.7,26.7,0,0,0,3.72,2.43,54.22,54.22,0,0,0,5.75,2.36,24.44,24.44,0,0,0,8,1.34,35.41,35.41,0,0,0,5.92-.39,30.67,30.67,0,0,0,6.27-1.59,33.09,33.09,0,0,0,7.36-4,30.88,30.88,0,0,0,9-10.11,31.62,31.62,0,0,0,2.83-6.54,31.2,31.2,0,0,0,1.25-7.66,5.66,5.66,0,0,0-.11-.94l-12.81-.13" transform="translate(-405.22 -734.49)"/><g id="g2Gb6jqSS-2" data-name="g2Gb6jqSS"><path class="cls-6" d="M1755.71,1722.55a4.18,4.18,0,0,0-.19.92,16,16,0,0,1-1.46,6.28,16.22,16.22,0,0,1-4,5.75c-.76.69-1.58,1.3-2.38,1.93a15.05,15.05,0,0,1-7.09,3.08,19.37,19.37,0,0,1-10.48-1,19.63,19.63,0,0,1-6-3.82,18.23,18.23,0,0,1-3.6-5,14.13,14.13,0,0,1-1.72-5.24,59.16,59.16,0,0,1-.27-6.39c0-5.19,0-10.37,0-15.56a10.86,10.86,0,0,0-.13-1.34l-9.4,0-4.14-.12.33,12.62h.1v3.64a45.06,45.06,0,0,0,1.17,12.19,30.62,30.62,0,0,0,4.11,9.09,46.56,46.56,0,0,0,4.63,5.59,21.29,21.29,0,0,0,3.27,2.59,26.7,26.7,0,0,0,3.72,2.43,54.22,54.22,0,0,0,5.75,2.36,24.44,24.44,0,0,0,8,1.34,35.41,35.41,0,0,0,5.92-.39,30.67,30.67,0,0,0,6.27-1.59,33.09,33.09,0,0,0,7.36-4,30.88,30.88,0,0,0,9-10.11,31.62,31.62,0,0,0,2.83-6.54,31.2,31.2,0,0,0,1.25-7.66,5.66,5.66,0,0,0-.11-.94l-12.81-.13" transform="translate(-405.22 -734.49)"/></g><path id="fzgmVmcfR" class="cls-5" d="M1679.52,1682.76c1.12-11.13,7.58-16.84,18.28-18.14,0-4.24,0-8.47,0-12.84a9.71,9.71,0,0,0-1.27-.09,19.11,19.11,0,0,0-2.38.3,56.39,56.39,0,0,0-5.62,1.27,30.35,30.35,0,0,0-4.89,2,27.78,27.78,0,0,0-4.2,2.57,48.9,48.9,0,0,0-4.36,3.79,16.08,16.08,0,0,0-1.88,2.31,44.33,44.33,0,0,0-2.9,4.17,24.43,24.43,0,0,0-1.87,4.29,39.37,39.37,0,0,0-1.62,5.83,28.32,28.32,0,0,0-.31,7.7,29.59,29.59,0,0,0,1.76,8c.46,1.2,1,2.36,1.56,3.51a26.86,26.86,0,0,0,1.71,3.17c.8,1.2,1.74,2.29,2.62,3.44a28.33,28.33,0,0,0,7.1,6l.49.32c.46-1.25,4.17-11.3,4.63-12.56-4.23-3.22-6.58-8.21-6.89-15.12" transform="translate(-405.22 -734.49)"/><g id="fzgmVmcfR-2" data-name="fzgmVmcfR"><path class="cls-6" d="M1679.52,1682.76c1.12-11.13,7.58-16.84,18.28-18.14,0-4.24,0-8.47,0-12.84a9.71,9.71,0,0,0-1.27-.09,19.11,19.11,0,0,0-2.38.3,56.39,56.39,0,0,0-5.62,1.27,30.35,30.35,0,0,0-4.89,2,27.78,27.78,0,0,0-4.2,2.57,48.9,48.9,0,0,0-4.36,3.79,16.08,16.08,0,0,0-1.88,2.31,44.33,44.33,0,0,0-2.9,4.17,24.43,24.43,0,0,0-1.87,4.29,39.37,39.37,0,0,0-1.62,5.83,28.32,28.32,0,0,0-.31,7.7,29.59,29.59,0,0,0,1.76,8c.46,1.2,1,2.36,1.56,3.51a26.86,26.86,0,0,0,1.71,3.17c.8,1.2,1.74,2.29,2.62,3.44a28.33,28.33,0,0,0,7.1,6l.49.32c.46-1.25,4.17-11.3,4.63-12.56-4.23-3.22-6.58-8.21-6.89-15.12" transform="translate(-405.22 -734.49)"/></g><path id="aLnYXICgL" class="cls-5" d="M1768.64,1651.88c0-.89,0-1.79,0-2.69,0-4,.25-8-.78-11.84a34,34,0,0,0-1.43-4.56,31.53,31.53,0,0,0-2.33-4.51,41.94,41.94,0,0,0-3.46-4.82,22.37,22.37,0,0,0-4.88-4.37c-.62-.4-1.14-1-1.78-1.36a31.17,31.17,0,0,0-3.18-1.69,36.1,36.1,0,0,0-5.28-2.11,32.06,32.06,0,0,0-17.84.27,37.44,37.44,0,0,0-4.94,2.08,23.5,23.5,0,0,0-3.56,2,35.8,35.8,0,0,0-8.35,8.31,5.8,5.8,0,0,0-.36.59c-.59,1.08-1.21,2.14-1.75,3.25a27,27,0,0,0-1.75,3.93,48.65,48.65,0,0,0-1.29,5.77c-.24,1.36-.26,2.75-.38,4.1l13.18,0c0-.15,0-.37,0-.6a19,19,0,0,1,1.8-7.3,14.08,14.08,0,0,1,3-4.37,23,23,0,0,1,4-3.32,21,21,0,0,1,4.5-2,12.63,12.63,0,0,1,3.69-.71,24.44,24.44,0,0,1,5.06.36,17,17,0,0,1,4.46,1.43,26.69,26.69,0,0,1,4.22,2.81,13.69,13.69,0,0,1,2.23,2.33,18.46,18.46,0,0,1,4,10.85c.07,2.7,0,5.41,0,8.11,0,3.43,0,6.85,0,10.29,0,.85,0,1.72.07,2.48l10,0,2.55,0c-.73-.09.41-12,.57-12.77" transform="translate(-405.22 -734.49)"/><g id="aLnYXICgL-2" data-name="aLnYXICgL"><path class="cls-6" d="M1768.64,1651.88c0-.89,0-1.79,0-2.69,0-4,.25-8-.78-11.84a34,34,0,0,0-1.43-4.56,31.53,31.53,0,0,0-2.33-4.51,41.94,41.94,0,0,0-3.46-4.82,22.37,22.37,0,0,0-4.88-4.37c-.62-.4-1.14-1-1.78-1.36a31.17,31.17,0,0,0-3.18-1.69,36.1,36.1,0,0,0-5.28-2.11,32.06,32.06,0,0,0-17.84.27,37.44,37.44,0,0,0-4.94,2.08,23.5,23.5,0,0,0-3.56,2,35.8,35.8,0,0,0-8.35,8.31,5.8,5.8,0,0,0-.36.59c-.59,1.08-1.21,2.14-1.75,3.25a27,27,0,0,0-1.75,3.93,48.65,48.65,0,0,0-1.29,5.77c-.24,1.36-.26,2.75-.38,4.1l13.18,0c0-.15,0-.37,0-.6a19,19,0,0,1,1.8-7.3,14.08,14.08,0,0,1,3-4.37,23,23,0,0,1,4-3.32,21,21,0,0,1,4.5-2,12.63,12.63,0,0,1,3.69-.71,24.44,24.44,0,0,1,5.06.36,17,17,0,0,1,4.46,1.43,26.69,26.69,0,0,1,4.22,2.81,13.69,13.69,0,0,1,2.23,2.33,18.46,18.46,0,0,1,4,10.85c.07,2.7,0,5.41,0,8.11,0,3.43,0,6.85,0,10.29,0,.85,0,1.72.07,2.48l10,0,2.55,0c-.73-.09.41-12,.57-12.77" transform="translate(-405.22 -734.49)"/></g><path id="ahOr0ZIET" class="cls-5" d="M1787.41,1653.84q1.1,14.34,1.22,15.94a7.74,7.74,0,0,1,.81.81,22.67,22.67,0,0,1,3,4.27,18.81,18.81,0,0,1,.72,15.32,18.11,18.11,0,0,1-2.84,5,17.71,17.71,0,0,1-6.89,5.22,16.09,16.09,0,0,1-6.27,1.47c-1,0-1.22.26-1.22,1.26,0,2.18,0,4.34,0,6.51,0,1.73,0,3.45,0,5.22,7.83.57,21-3.64,28-16.67a31.15,31.15,0,0,0-4.17-35.56,30.71,30.71,0,0,0-12.35-8.79" transform="translate(-405.22 -734.49)"/><g id="ahOr0ZIET-2" data-name="ahOr0ZIET"><path class="cls-6" d="M1787.41,1653.84q1.1,14.34,1.22,15.94a7.74,7.74,0,0,1,.81.81,22.67,22.67,0,0,1,3,4.27,18.81,18.81,0,0,1,.72,15.32,18.11,18.11,0,0,1-2.84,5,17.71,17.71,0,0,1-6.89,5.22,16.09,16.09,0,0,1-6.27,1.47c-1,0-1.22.26-1.22,1.26,0,2.18,0,4.34,0,6.51,0,1.73,0,3.45,0,5.22,7.83.57,21-3.64,28-16.67a31.15,31.15,0,0,0-4.17-35.56,30.71,30.71,0,0,0-12.35-8.79" transform="translate(-405.22 -734.49)"/></g><path id="c2MIfCH1sg" class="cls-5" d="M1748.23,1651.69l-42.86,0c0,14.23,0,28.56,0,43.09l13.52,0c0-10.07,0-19.89-.07-29.81h29.28q.06-6.86.12-13.33" transform="translate(-405.22 -734.49)"/><g id="c2MIfCH1sg-2" data-name="c2MIfCH1sg"><path class="cls-6" d="M1748.23,1651.69l-42.86,0c0,14.23,0,28.56,0,43.09l13.52,0c0-10.07,0-19.89-.07-29.81h29.28q.06-6.86.12-13.33" transform="translate(-405.22 -734.49)"/></g><path id="b3scODcUCd" class="cls-5" d="M1755.32,1672.16v29.56h-29.68c0,4.52,0,8.88,0,13.18l43.25,0c0-14.18,0-28.54,0-42.59l-13.52-.12" transform="translate(-405.22 -734.49)"/><g id="b3scODcUCd-2" data-name="b3scODcUCd"><path class="cls-6" d="M1755.32,1672.16v29.56h-29.68c0,4.52,0,8.88,0,13.18l43.25,0c0-14.18,0-28.54,0-42.59l-13.52-.12" transform="translate(-405.22 -734.49)"/></g><path id="b19ohW9xos" class="cls-5" d="M1776.06,1651.73l-7.42.15c-.16.81-1.3,12.68-.57,12.77h0l3.08,0,5.44.08a18.83,18.83,0,0,1,8.6,2.52,22.76,22.76,0,0,1,3.44,2.48c-.12-1.6-1.1-14.35-1.22-15.94a33.18,33.18,0,0,0-11.35-2.11" transform="translate(-405.22 -734.49)"/><g id="b19ohW9xos-2" data-name="b19ohW9xos"><path class="cls-6" d="M1776.06,1651.73l-7.42.15c-.16.81-1.3,12.68-.57,12.77h0l3.08,0,5.44.08a18.83,18.83,0,0,1,8.6,2.52,22.76,22.76,0,0,1,3.44,2.48c-.12-1.6-1.1-14.35-1.22-15.94a33.18,33.18,0,0,0-11.35-2.11" transform="translate(-405.22 -734.49)"/></g><path id="bL8zF7dt" class="cls-5" d="M1776.06,1651.73l-7.42.15c-.16.81-1.3,12.68-.57,12.77h0l3.08,0,5.44.08a18.83,18.83,0,0,1,8.6,2.52,22.76,22.76,0,0,1,3.44,2.48c-.12-1.6-1.1-14.35-1.22-15.94a33.18,33.18,0,0,0-11.35-2.11" transform="translate(-405.22 -734.49)"/><g id="bL8zF7dt-2" data-name="bL8zF7dt"><path class="cls-6" d="M1776.06,1651.73l-7.42.15c-.16.81-1.3,12.68-.57,12.77h0l3.08,0,5.44.08a18.83,18.83,0,0,1,8.6,2.52,22.76,22.76,0,0,1,3.44,2.48c-.12-1.6-1.1-14.35-1.22-15.94a33.18,33.18,0,0,0-11.35-2.11" transform="translate(-405.22 -734.49)"/></g><path id="aj2gvSPig" class="cls-5" d="M1696,1701.82a22,22,0,0,1-9.58-3.94c-.46,1.26-4.17,11.31-4.63,12.56a28.35,28.35,0,0,0,3.22,1.71,26.91,26.91,0,0,0,3.74,1.43,50.91,50.91,0,0,0,5.41,1.23,30.81,30.81,0,0,0,3.69.22v0l7.35-.32-.33-12.62-8.87-.24" transform="translate(-405.22 -734.49)"/><g id="aj2gvSPig-2" data-name="aj2gvSPig"><path class="cls-6" d="M1696,1701.82a22,22,0,0,1-9.58-3.94c-.46,1.26-4.17,11.31-4.63,12.56a28.35,28.35,0,0,0,3.22,1.71,26.91,26.91,0,0,0,3.74,1.43,50.91,50.91,0,0,0,5.41,1.23,30.81,30.81,0,0,0,3.69.22v0l7.35-.32-.33-12.62-8.87-.24" transform="translate(-405.22 -734.49)"/></g><path id="h4zwciERok" class="cls-5" d="M1696,1701.82a22,22,0,0,1-9.58-3.94c-.46,1.26-4.17,11.31-4.63,12.56a28.35,28.35,0,0,0,3.22,1.71,26.91,26.91,0,0,0,3.74,1.43,50.91,50.91,0,0,0,5.41,1.23,30.81,30.81,0,0,0,3.69.22v0l7.35-.32-.33-12.62-8.87-.24" transform="translate(-405.22 -734.49)"/><g id="h4zwciERok-2" data-name="h4zwciERok"><path class="cls-6" d="M1696,1701.82a22,22,0,0,1-9.58-3.94c-.46,1.26-4.17,11.31-4.63,12.56a28.35,28.35,0,0,0,3.22,1.71,26.91,26.91,0,0,0,3.74,1.43,50.91,50.91,0,0,0,5.41,1.23,30.81,30.81,0,0,0,3.69.22v0l7.35-.32-.33-12.62-8.87-.24" transform="translate(-405.22 -734.49)"/></g><path id="d1MmFH0NKi" class="cls-5" d="M1869.57,1649.85h-47.66v8.63h18.39v57.6h10.78v-57.6h18.49v-8.63" transform="translate(-405.22 -734.49)"/><g id="d1MmFH0NKi-2" data-name="d1MmFH0NKi"><polyline class="cls-6" points="1464.34 915.36 1416.68 915.36 1416.68 923.99 1435.07 923.99 1435.07 981.59 1445.86 981.59 1445.86 923.99 1464.34 923.99 1464.34 915.36"/></g><path id="bp6hTJTK4" class="cls-5" d="M1876.61,1687.47q.38-7.52,4.6-11.35a15,15,0,0,1,10.51-3.85,16.26,16.26,0,0,1,7.27,1.64,12.1,12.1,0,0,1,5.25,5.07,16,16,0,0,1,1.74,8.49Zm28.38-20.6a29.42,29.42,0,0,0-26.55.05,22.72,22.72,0,0,0-9,9.2,31.94,31.94,0,0,0,0,28.24,22.69,22.69,0,0,0,9,9.19,27,27,0,0,0,13.28,3.19,28.11,28.11,0,0,0,11.73-2.39,22.32,22.32,0,0,0,8.53-6.62,22.09,22.09,0,0,0,4.31-9.66h-11.44a11.21,11.21,0,0,1-4.55,7.22,14.84,14.84,0,0,1-9,2.73,14.47,14.47,0,0,1-10.23-3.85q-4.12-3.86-4.41-11.82h39.78a26.57,26.57,0,0,0-2.67-16.84,21.93,21.93,0,0,0-8.73-8.64" transform="translate(-405.22 -734.49)"/><g id="bp6hTJTK4-2" data-name="bp6hTJTK4"><g class="cls-7"><path class="cls-5" d="M1876.61,1687.47q.38-7.52,4.6-11.35a15,15,0,0,1,10.51-3.85,16.26,16.26,0,0,1,7.27,1.64,12.1,12.1,0,0,1,5.25,5.07,16,16,0,0,1,1.74,8.49Zm28.38-20.6a29.42,29.42,0,0,0-26.55.05,22.72,22.72,0,0,0-9,9.2,31.94,31.94,0,0,0,0,28.24,22.69,22.69,0,0,0,9,9.19,27,27,0,0,0,13.28,3.19,28.11,28.11,0,0,0,11.73-2.39,22.32,22.32,0,0,0,8.53-6.62,22.09,22.09,0,0,0,4.31-9.66h-11.44a11.21,11.21,0,0,1-4.55,7.22,14.84,14.84,0,0,1-9,2.73,14.47,14.47,0,0,1-10.23-3.85q-4.12-3.86-4.41-11.82h39.78a26.57,26.57,0,0,0-2.67-16.84,21.93,21.93,0,0,0-8.73-8.64" transform="translate(-405.22 -734.49)"/></g></g><path id="a8mAzfUd53" class="cls-5" d="M1967.37,1664.39h-11.82l-11,17.82-12.38-17.82h-12.11l17.27,24.86-17.08,26.83h11.92l11.07-18.29,12.66,18.29H1968l-17.72-25.61,17.07-26.08" transform="translate(-405.22 -734.49)"/><g id="a8mAzfUd53-2" data-name="a8mAzfUd53"><polyline class="cls-6" points="1562.15 929.9 1550.32 929.9 1539.35 947.73 1526.96 929.9 1514.86 929.9 1532.13 954.76 1515.05 981.59 1526.96 981.59 1538.04 963.3 1550.7 981.59 1562.8 981.59 1545.07 955.99 1562.15 929.9"/></g><path id="a5FgKhsTa" class="cls-5" d="M1993.08,1705.1q-1.63-1.68-1.64-6.09v-25.52h12.48v-9.1h-12.48v-12.86h-10.79v12.86h-7.41v9.1h7.41v25.33q0,9.29,4.27,13.28t12.53,4H2004v-9.29h-5.16q-4.12,0-5.77-1.69" transform="translate(-405.22 -734.49)"/><g id="a5FgKhsTa-2" data-name="a5FgKhsTa"><path class="cls-6" d="M1993.08,1705.1q-1.63-1.68-1.64-6.09v-25.52h12.48v-9.1h-12.48v-12.86h-10.79v12.86h-7.41v9.1h7.41v25.33q0,9.29,4.27,13.28t12.53,4H2004v-9.29h-5.16q-4.12,0-5.77-1.69" transform="translate(-405.22 -734.49)"/></g><path id="a2j1IBdFdb" class="cls-5" d="M2050.47,1691.78q0,7.89-3.85,12a13.31,13.31,0,0,1-10.22,4.13q-6.2,0-9.76-3.8t-3.56-10.84v-28.89h-10.7v30q0,10.78,5.44,16.6t14.45,5.82a20.43,20.43,0,0,0,11.35-3.14,16.72,16.72,0,0,0,6.85-8.87v11.26h10.79v-51.69h-10.79v27.39" transform="translate(-405.22 -734.49)"/><g id="a2j1IBdFdb-2" data-name="a2j1IBdFdb"><path class="cls-6" d="M2050.47,1691.78q0,7.89-3.85,12a13.31,13.31,0,0,1-10.22,4.13q-6.2,0-9.76-3.8t-3.56-10.84v-28.89h-10.7v30q0,10.78,5.44,16.6t14.45,5.82a20.43,20.43,0,0,0,11.35-3.14,16.72,16.72,0,0,0,6.85-8.87v11.26h10.79v-51.69h-10.79v27.39" transform="translate(-405.22 -734.49)"/></g><path id="a6Tq4muX" class="cls-5" d="M2085.11,1674.52v-10.13h-10.7v51.69h10.7v-26.17q0-7.87,4.26-11.31t11.31-3.42h3.19v-11.63a21.28,21.28,0,0,0-11.26,3,19.84,19.84,0,0,0-7.5,8" transform="translate(-405.22 -734.49)"/><g id="a6Tq4muX-2" data-name="a6Tq4muX"><path class="cls-6" d="M2085.11,1674.52v-10.13h-10.7v51.69h10.7v-26.17q0-7.87,4.26-11.31t11.31-3.42h3.19v-11.63a21.28,21.28,0,0,0-11.26,3,19.84,19.84,0,0,0-7.5,8" transform="translate(-405.22 -734.49)"/></g><path id="d1HpYEu6lc" class="cls-5" d="M2151.08,1664.39l-14.35,38-15.48-38h-12l21.77,50.47-11.17,25.8h11.92l31.24-76.27h-11.92" transform="translate(-405.22 -734.49)"/><g id="d1HpYEu6lc-2" data-name="d1HpYEu6lc"><polyline class="cls-6" points="1745.86 929.9 1731.51 967.9 1716.03 929.9 1704.02 929.9 1725.78 980.38 1714.62 1006.17 1726.54 1006.17 1757.78 929.9 1745.86 929.9"/></g></svg>